<mxfile host="app.diagrams.net" modified="2023-02-09T14:48:25.596Z" agent="5.0 (Windows NT 10.0; Win64; x64) AppleWebKit/537.36 (KHTML, like Gecko) Chrome/110.0.0.0 Safari/537.36" etag="Q0qTB2vG2p3Ax3cHCQFj" version="20.8.18" type="github">
  <diagram name="Page-1" id="7QaUDv5wowm_0SLXL-_K">
    <mxGraphModel dx="1221" dy="2943" grid="1" gridSize="10" guides="1" tooltips="1" connect="1" arrows="1" fold="1" page="1" pageScale="1" pageWidth="850" pageHeight="1100" math="0" shadow="0">
      <root>
        <mxCell id="0" />
        <mxCell id="1" parent="0" />
        <mxCell id="X6ow4vc2DZEn4e6P9Xnk-7" value="" style="edgeStyle=orthogonalEdgeStyle;rounded=0;orthogonalLoop=1;jettySize=auto;html=1;fontSize=20;fontColor=none;" edge="1" parent="1" source="X6ow4vc2DZEn4e6P9Xnk-1" target="X6ow4vc2DZEn4e6P9Xnk-4">
          <mxGeometry relative="1" as="geometry" />
        </mxCell>
        <mxCell id="X6ow4vc2DZEn4e6P9Xnk-1" value="&lt;font style=&quot;font-size: 20px;&quot;&gt;Start&lt;/font&gt;" style="ellipse;whiteSpace=wrap;html=1;" vertex="1" parent="1">
          <mxGeometry x="205" y="-2110" width="150" height="60" as="geometry" />
        </mxCell>
        <mxCell id="X6ow4vc2DZEn4e6P9Xnk-2" value="&lt;font style=&quot;font-size: 20px;&quot;&gt;calculate correlation&lt;/font&gt;" style="text;html=1;align=center;verticalAlign=middle;resizable=0;points=[];autosize=1;strokeColor=none;fillColor=none;" vertex="1" parent="1">
          <mxGeometry x="180" y="-2170" width="200" height="40" as="geometry" />
        </mxCell>
        <mxCell id="X6ow4vc2DZEn4e6P9Xnk-3" value="X=[], Y=[]" style="shape=parallelogram;perimeter=parallelogramPerimeter;whiteSpace=wrap;html=1;fixedSize=1;fontSize=20;fontColor=none;" vertex="1" parent="1">
          <mxGeometry x="190" y="-2020" width="180" height="60" as="geometry" />
        </mxCell>
        <mxCell id="X6ow4vc2DZEn4e6P9Xnk-8" value="" style="edgeStyle=orthogonalEdgeStyle;rounded=0;orthogonalLoop=1;jettySize=auto;html=1;fontSize=20;fontColor=none;" edge="1" parent="1" source="X6ow4vc2DZEn4e6P9Xnk-4" target="X6ow4vc2DZEn4e6P9Xnk-6">
          <mxGeometry relative="1" as="geometry" />
        </mxCell>
        <mxCell id="X6ow4vc2DZEn4e6P9Xnk-4" value="sum of X&lt;br&gt;sum of Y&lt;br&gt;sum of X*Y&lt;br&gt;sum of X*X&lt;br&gt;sum of Y*Y&lt;br&gt;&lt;br&gt;sqrtX&lt;br&gt;sqrtY&lt;br&gt;" style="rounded=0;whiteSpace=wrap;html=1;fontSize=20;fontColor=none;" vertex="1" parent="1">
          <mxGeometry x="190" y="-1940" width="180" height="230" as="geometry" />
        </mxCell>
        <mxCell id="X6ow4vc2DZEn4e6P9Xnk-10" value="" style="edgeStyle=orthogonalEdgeStyle;rounded=0;orthogonalLoop=1;jettySize=auto;html=1;fontSize=20;fontColor=none;" edge="1" parent="1" source="X6ow4vc2DZEn4e6P9Xnk-6" target="X6ow4vc2DZEn4e6P9Xnk-9">
          <mxGeometry relative="1" as="geometry" />
        </mxCell>
        <mxCell id="X6ow4vc2DZEn4e6P9Xnk-6" value="&lt;img height=&quot;58&quot; width=&quot;377&quot; src=&quot;data:image/gif;base64,R0lGODlheQE6ALMAAP///+fn58rKyra2tp6enoqKinV1dWFhYVFRUUFBQTExMSAgIBQUFAwMDAQEBAAAACH5BAEHAAAALAAAAAB5AToAAAT/EMhJq7046827/2AojmRpnmiqrmzrvu3zKHStLIz8FLAr2zWcjpf6AW85GbHHbDqf0JZhlyE0FtHTdGmxYlPb6jVLLpvPTcUjoFmw0SD1G+NWydtzuH7P7wMCDgwaAVx+F4CCGYQqiIOFhpCRkioDDweTIpWXT5qYnp+gFQUHCgAFBgd1GAgPAyADqAkBBwalFwK1BBMKmy+srh+wB7K0thy/H7gKuhK8oc/QLAYADgoCEgkIGgwNydMAC1hT1xaXCMZUPdzeEuEA4x7rHuboj9H3+BwF1+kACgkaBMyYN4GBNgDAKhC4xmBTpTwuBBrb0MughIQcJHZYCKDhxTX5/0KKVASAwAMKDr5lKACSw5wHzCgM6PYHgMA3B2gi1ElBgM+fQAVAvMBy6KEJMC3M3FDUpc2WOScsHUlVJIIvT41SoBXCJAZyEhAkAgdwAlizR4D0ysAVhNdbFFUeG7ugrISzVfM+8xhWkNaSdj+InfCXL4B+MAgE9jBYwt8uizcYRqy3MrRWExpMW9sTawdgFv98I4XRAbOHEki3EOCZA+iDAUYrwFiBdQjTH3HOtswb01sJa2LTeXyWpc8GmzYZCKCACwMiCmgub95C1VcKxgUgTy1hur12xC08byad+ffe6NHUopDgAOddtBXGtKnAwHRUb9g4qDCg/gEGZenXwv9uVcwnQH33HZAfNRkQiAEB813kH4COMZjehfe09SBPHRgQGVIxeciChhdYEYKIF5DYBYcWJNXdhxjGGAkBCwT1EwEGLPAAjBkwMEABb4RmwFgd/fjYBzTa6BOOOvKIgY9AKlSjkkzuKN5BQ1IA5ZEydnkGDgyEKeaYYca3QXtL+GhTA2ehqQKYZMZppgZuVgBnnGPGp6Z2bR5wnpeAXjjKAQhwKeOghQY6wSil2OegopBGKikF0zjghkByiZAAnmO2NumnoMKxz2GnhWrqqb2x8RscOrTq6quwxirrrLTWauutuOaq66689urrr8AG22sGV6Fq7LGVGYbCppyG6Sn/stBGSwJmCnmISo0AqBYAi9J2660Lqzo2DQGCWLNcAjwU8CwUUwjr7rvwxtuqCe3Ka++9+M56wXqrHFTTfgC0h8ZE3/ZBcMFlMKDLGzRK0MCcThTwJ8JkSExxGaMEcFK23Wmj8cCGXuyEAiGLrEIB7bl3ADnM1UIkGQebXEbMMpPBjMBm4LgHAe4tADEKJQPNhM568JzKzyYEXYLSJQj0RwNMqyCLHrPk5gteTBgQn9E+mzA1HFUj1BILCGD9gtZd9Iw0CAh4aDYU62bxm4sjRujE1445NLYIcUcxt90nHAA4DHj/oXfUkgzwHgdGACGEEq849sDbTU/UuA2PUyYC/3MU/E2C4iJcHkQSmmsAjMaUj3AgBaLTkPnEg0zkeV5lixDGhn0T6yQJ2E5we4ljnJDAfKdPTkLtJ5YugRcjILA732f9vmLuZxIveerRUI/BHRlY5wHKEb3sz94WeD/CAM86X4L2F3A/XAjgsyCA+O5fYP4r6T//jAD+htCIIrDr3CYQhwFCWeB/GFjECQCGHf19pX8gQOAhAjgBnlVIBQasgAQPSEEMMHBRDgzFATDCKFNcSyudCEYsZsEvxQWAEGsDwQLskUIPCIMY/OrefCxYExGMEDukMGEqUGgJbyxjFw5REAxXMMML1DAjuUCiDgV4Qaq0plLWwAYEKYCMDv/goh3imJxA5sUCB7yti1AE4zuMlwGcIUSJBYhh+SqARXJkg1jU4gA9kMKDMeqgjGfMI0UAcA4+trEXLlwiVQQQmFH14x/b4FaKCnIQOZqAfFqSZDkoeZENIOAgfpSB6hrJjyVAskea7BxDDtcETBYklRVcpdX6dRdX3cMn5ZiPqjYmgZQEZCBOAc7gNqAkoGiFl7cA5gZeYrepbCWEPcGa4CiwS5RkqjbKJMlNUgPL2hTTJ8f8Jc2omRVuSoVDw6jKtt4Ts2LV8khN8UC4PHCgtNRgcYdhiisfhMyelAOajtlOBdqJlW1qIJ6epEsI62lPZ1ygnxZAqAYaQxZ/PrP/KqR4WQA+ZJjBPEZFCSXMOV+wz9Rcc6JjOdInfagAjXK0Fx7VAEif1It+OJMFJc3WSS8wmT+ttCoSNYA98qgZjj3Iga8Rl0Vb8LAqIFUCoRFOth6FjZ3qMw9CfWhCiopPwHwAN2LLA/ZI0NSjfvU0UKFqAqx6D8TEbFXB2altOpAdgXaVBdS5BfvqmpzumEc8lqyAW0uEzLh+hX1QhU43U5BXC8w1Hor1a2OhGlhPMGAiMcthwNzTvfDcBUEtU9AEVOMCFJXPs/SxT2gX9MEJtBYEl6VAZieSss4GhD8TsgtppQCj+y1VQqig0L8s8FqRHICBFjsBVeXjAe+8YFvt//sZhD5g2goCdCvI7WCDpDtMFznXBdC1wHI7190QLUYxlREIMEgWOLaayAMCIhxtZlrBxRbESLIdawbU2wwCmlQD7+XkO1JqoRckYL7u5ZCQiLSlXegXGg7YxDjlOSUbVQma1W0B5ypY4aBcGAR1ush1KxDhZpwgSVTKkZW05Ao+UWrE8JVdh4HyYRavqU9LGACMMbGpkrC1A3dqVmAb/IJTTCDInKqseJclCKKtr1l5EoV7EsXiKBVZJUjGE20QdaQJh6QohetDiM+m5BKI9gRg9q+B/ZS1MvtQzZPYgZdr1gM50/lTCxDonbOQ57vuGUMHYOOfoRDoBw/aMto5dBIUEq1oRcG50fCFtKQnTekRRAAAOw==&quot;&gt;" style="rounded=0;whiteSpace=wrap;html=1;fontSize=20;fontColor=none;" vertex="1" parent="1">
          <mxGeometry x="60" y="-1670" width="440" height="80" as="geometry" />
        </mxCell>
        <mxCell id="X6ow4vc2DZEn4e6P9Xnk-12" value="" style="edgeStyle=orthogonalEdgeStyle;rounded=0;orthogonalLoop=1;jettySize=auto;html=1;fontSize=20;fontColor=none;" edge="1" parent="1" source="X6ow4vc2DZEn4e6P9Xnk-9" target="X6ow4vc2DZEn4e6P9Xnk-11">
          <mxGeometry relative="1" as="geometry" />
        </mxCell>
        <mxCell id="X6ow4vc2DZEn4e6P9Xnk-9" value="R" style="shape=parallelogram;perimeter=parallelogramPerimeter;whiteSpace=wrap;html=1;fixedSize=1;fontSize=20;fontColor=none;" vertex="1" parent="1">
          <mxGeometry x="185" y="-1550" width="190" height="60" as="geometry" />
        </mxCell>
        <mxCell id="X6ow4vc2DZEn4e6P9Xnk-11" value="&lt;font style=&quot;font-size: 20px;&quot;&gt;End&lt;/font&gt;" style="ellipse;whiteSpace=wrap;html=1;" vertex="1" parent="1">
          <mxGeometry x="205" y="-1460" width="150" height="60" as="geometry" />
        </mxCell>
      </root>
    </mxGraphModel>
  </diagram>
</mxfile>
